<mxfile host="65bd71144e">
    <diagram id="EILywZW0Z4QLo58FCy74" name="Page-1">
        <mxGraphModel dx="2129" dy="1206" grid="1" gridSize="10" guides="1" tooltips="1" connect="1" arrows="1" fold="1" page="1" pageScale="1" pageWidth="827" pageHeight="1169" math="0" shadow="0">
            <root>
                <mxCell id="0"/>
                <mxCell id="1" parent="0"/>
                <mxCell id="2" style="edgeStyle=none;html=1;entryX=0.5;entryY=0;entryDx=0;entryDy=0;fontSize=18;fontStyle=0" parent="1" source="3" target="5" edge="1">
                    <mxGeometry relative="1" as="geometry"/>
                </mxCell>
                <mxCell id="3" value="&lt;font style=&quot;font-size: 18px;&quot;&gt;Début&lt;/font&gt;" style="ellipse;whiteSpace=wrap;html=1;fontStyle=0" parent="1" vertex="1">
                    <mxGeometry x="241" y="20" width="186" height="80" as="geometry"/>
                </mxCell>
                <mxCell id="4" style="edgeStyle=none;html=1;fontSize=18;fontStyle=0" parent="1" source="5" target="13" edge="1">
                    <mxGeometry relative="1" as="geometry"/>
                </mxCell>
                <mxCell id="5" value="Champs de recherche" style="shape=parallelogram;perimeter=parallelogramPerimeter;whiteSpace=wrap;html=1;fixedSize=1;fontSize=18;fontStyle=0" parent="1" vertex="1">
                    <mxGeometry x="261" y="150" width="146" height="60" as="geometry"/>
                </mxCell>
                <mxCell id="48" style="edgeStyle=none;html=1;entryX=0.5;entryY=1;entryDx=0;entryDy=0;exitX=0;exitY=0.5;exitDx=0;exitDy=0;" parent="1" source="8" target="41" edge="1">
                    <mxGeometry relative="1" as="geometry">
                        <Array as="points">
                            <mxPoint x="130" y="640"/>
                        </Array>
                    </mxGeometry>
                </mxCell>
                <mxCell id="61" style="edgeStyle=none;html=1;entryX=0.5;entryY=0;entryDx=0;entryDy=0;" parent="1" source="8" target="54" edge="1">
                    <mxGeometry relative="1" as="geometry"/>
                </mxCell>
                <mxCell id="8" value="input = recette.ustensile" style="rhombus;whiteSpace=wrap;html=1;fontSize=18;fontStyle=0" parent="1" vertex="1">
                    <mxGeometry x="208.5" y="570" width="250" height="140" as="geometry"/>
                </mxCell>
                <mxCell id="10" style="edgeStyle=none;html=1;fontSize=18;fontStyle=0;entryX=0.5;entryY=0;entryDx=0;entryDy=0;" parent="1" source="11" target="8" edge="1">
                    <mxGeometry relative="1" as="geometry"/>
                </mxCell>
                <mxCell id="57" style="edgeStyle=none;html=1;entryX=0;entryY=0.5;entryDx=0;entryDy=0;startArrow=none;" parent="1" source="59" target="33" edge="1">
                    <mxGeometry relative="1" as="geometry"/>
                </mxCell>
                <mxCell id="11" value="i &amp;lt; taille de recettes" style="rhombus;whiteSpace=wrap;html=1;fontSize=18;fontStyle=0" parent="1" vertex="1">
                    <mxGeometry x="263" y="380" width="144" height="130" as="geometry"/>
                </mxCell>
                <mxCell id="12" style="edgeStyle=none;html=1;fontSize=18;fontStyle=0;entryX=0.5;entryY=0;entryDx=0;entryDy=0;exitX=0.5;exitY=1;exitDx=0;exitDy=0;" parent="1" source="13" target="11" edge="1">
                    <mxGeometry relative="1" as="geometry">
                        <mxPoint x="332.0625" y="380" as="sourcePoint"/>
                    </mxGeometry>
                </mxCell>
                <mxCell id="13" value="recettes = recettes du tableau&lt;br&gt;recettes à afficher=[0]&lt;br&gt;i = 0&lt;br&gt;input = Champs de recherche" style="rounded=0;whiteSpace=wrap;html=1;fontSize=18;fontStyle=0" parent="1" vertex="1">
                    <mxGeometry x="200" y="230" width="267" height="100" as="geometry"/>
                </mxCell>
                <mxCell id="91" style="edgeStyle=none;html=1;" parent="1" source="18" target="88" edge="1">
                    <mxGeometry relative="1" as="geometry"/>
                </mxCell>
                <mxCell id="18" value="input = recette.appareil" style="rhombus;whiteSpace=wrap;html=1;fontSize=18;fontStyle=0" parent="1" vertex="1">
                    <mxGeometry x="1150" y="565" width="250" height="150" as="geometry"/>
                </mxCell>
                <mxCell id="66" style="edgeStyle=none;html=1;entryX=1;entryY=0.5;entryDx=0;entryDy=0;" parent="1" source="21" target="65" edge="1">
                    <mxGeometry relative="1" as="geometry"/>
                </mxCell>
                <mxCell id="68" style="edgeStyle=none;html=1;" parent="1" source="21" target="64" edge="1">
                    <mxGeometry relative="1" as="geometry"/>
                </mxCell>
                <mxCell id="21" value="input = recette.ingredient" style="rhombus;whiteSpace=wrap;html=1;fontSize=18;fontStyle=0" parent="1" vertex="1">
                    <mxGeometry x="690" y="565" width="250" height="150" as="geometry"/>
                </mxCell>
                <mxCell id="85" style="edgeStyle=none;html=1;entryX=0.5;entryY=1;entryDx=0;entryDy=0;" parent="1" source="25" target="65" edge="1">
                    <mxGeometry relative="1" as="geometry">
                        <Array as="points">
                            <mxPoint x="570" y="1023"/>
                        </Array>
                    </mxGeometry>
                </mxCell>
                <mxCell id="25" value="Ajouter la recette à recettes à afficher" style="rounded=0;whiteSpace=wrap;html=1;fontSize=18;fontStyle=0" parent="1" vertex="1">
                    <mxGeometry x="730" y="960" width="170" height="125" as="geometry"/>
                </mxCell>
                <mxCell id="70" style="edgeStyle=none;html=1;" parent="1" source="33" target="21" edge="1">
                    <mxGeometry relative="1" as="geometry"/>
                </mxCell>
                <mxCell id="78" style="edgeStyle=none;html=1;entryX=0;entryY=0.5;entryDx=0;entryDy=0;" parent="1" source="33" target="75" edge="1">
                    <mxGeometry relative="1" as="geometry"/>
                </mxCell>
                <mxCell id="33" value="i &amp;lt; taille de recettes" style="rhombus;whiteSpace=wrap;html=1;fontSize=18;fontStyle=0" parent="1" vertex="1">
                    <mxGeometry x="743" y="380" width="144" height="130" as="geometry"/>
                </mxCell>
                <mxCell id="44" style="edgeStyle=none;html=1;entryX=0.5;entryY=0;entryDx=0;entryDy=0;" parent="1" source="35" target="18" edge="1">
                    <mxGeometry relative="1" as="geometry"/>
                </mxCell>
                <mxCell id="97" style="edgeStyle=none;html=1;entryX=0;entryY=0.5;entryDx=0;entryDy=0;" parent="1" source="35" target="96" edge="1">
                    <mxGeometry relative="1" as="geometry"/>
                </mxCell>
                <mxCell id="35" value="i &amp;lt; taille de recettes" style="rhombus;whiteSpace=wrap;html=1;fontSize=18;fontStyle=0" parent="1" vertex="1">
                    <mxGeometry x="1203" y="380" width="144" height="130" as="geometry"/>
                </mxCell>
                <mxCell id="51" style="edgeStyle=none;html=1;entryX=0;entryY=0.5;entryDx=0;entryDy=0;" parent="1" source="41" target="11" edge="1">
                    <mxGeometry relative="1" as="geometry"/>
                </mxCell>
                <mxCell id="41" value="i = i+1" style="rounded=0;whiteSpace=wrap;html=1;fontSize=18;" parent="1" vertex="1">
                    <mxGeometry x="70" y="415" width="120" height="60" as="geometry"/>
                </mxCell>
                <mxCell id="53" value="Non" style="text;html=1;strokeColor=none;fillColor=none;align=center;verticalAlign=middle;whiteSpace=wrap;rounded=0;" parent="1" vertex="1">
                    <mxGeometry x="640" y="610" width="60" height="30" as="geometry"/>
                </mxCell>
                <mxCell id="63" style="edgeStyle=none;html=1;entryX=0.5;entryY=1;entryDx=0;entryDy=0;" parent="1" source="54" target="41" edge="1">
                    <mxGeometry relative="1" as="geometry">
                        <Array as="points">
                            <mxPoint x="130" y="843"/>
                        </Array>
                    </mxGeometry>
                </mxCell>
                <mxCell id="54" value="Ajouter la recette à recettes à afficher" style="rounded=0;whiteSpace=wrap;html=1;fontSize=18;" parent="1" vertex="1">
                    <mxGeometry x="250" y="780" width="170" height="125" as="geometry"/>
                </mxCell>
                <mxCell id="56" value="Non" style="text;html=1;strokeColor=none;fillColor=none;align=center;verticalAlign=middle;whiteSpace=wrap;rounded=0;" parent="1" vertex="1">
                    <mxGeometry x="390" y="400" width="60" height="30" as="geometry"/>
                </mxCell>
                <mxCell id="58" value="Oui" style="text;html=1;strokeColor=none;fillColor=none;align=center;verticalAlign=middle;whiteSpace=wrap;rounded=0;" parent="1" vertex="1">
                    <mxGeometry x="340" y="535" width="60" height="30" as="geometry"/>
                </mxCell>
                <mxCell id="60" value="" style="edgeStyle=none;html=1;entryX=0;entryY=0.5;entryDx=0;entryDy=0;endArrow=none;" parent="1" source="11" target="59" edge="1">
                    <mxGeometry relative="1" as="geometry">
                        <mxPoint x="407" y="445" as="sourcePoint"/>
                        <mxPoint x="743" y="445" as="targetPoint"/>
                    </mxGeometry>
                </mxCell>
                <mxCell id="59" value="i = 0" style="rounded=0;whiteSpace=wrap;html=1;fontSize=18;" parent="1" vertex="1">
                    <mxGeometry x="510" y="415" width="120" height="60" as="geometry"/>
                </mxCell>
                <mxCell id="62" value="Oui" style="text;html=1;strokeColor=none;fillColor=none;align=center;verticalAlign=middle;whiteSpace=wrap;rounded=0;" parent="1" vertex="1">
                    <mxGeometry x="340" y="730" width="60" height="30" as="geometry"/>
                </mxCell>
                <mxCell id="83" style="edgeStyle=none;html=1;" parent="1" source="64" target="25" edge="1">
                    <mxGeometry relative="1" as="geometry"/>
                </mxCell>
                <mxCell id="95" style="edgeStyle=none;html=1;entryX=0.5;entryY=1;entryDx=0;entryDy=0;" parent="1" source="64" target="65" edge="1">
                    <mxGeometry relative="1" as="geometry">
                        <Array as="points">
                            <mxPoint x="570" y="820"/>
                        </Array>
                    </mxGeometry>
                </mxCell>
                <mxCell id="64" value="recette est incluse dans recette à afficher" style="rhombus;whiteSpace=wrap;html=1;fontSize=18;fontStyle=0" parent="1" vertex="1">
                    <mxGeometry x="690" y="740" width="250" height="150" as="geometry"/>
                </mxCell>
                <mxCell id="67" style="edgeStyle=none;html=1;entryX=0;entryY=0.5;entryDx=0;entryDy=0;" parent="1" source="65" target="33" edge="1">
                    <mxGeometry relative="1" as="geometry">
                        <mxPoint x="570.0000000000002" y="530" as="targetPoint"/>
                        <Array as="points">
                            <mxPoint x="570" y="530"/>
                            <mxPoint x="743" y="530"/>
                        </Array>
                    </mxGeometry>
                </mxCell>
                <mxCell id="65" value="i = i+1" style="rounded=0;whiteSpace=wrap;html=1;fontSize=18;" parent="1" vertex="1">
                    <mxGeometry x="510" y="610" width="120" height="60" as="geometry"/>
                </mxCell>
                <mxCell id="72" style="edgeStyle=none;html=1;entryX=0;entryY=0.5;entryDx=0;entryDy=0;startArrow=none;" parent="1" source="75" target="35" edge="1">
                    <mxGeometry relative="1" as="geometry">
                        <mxPoint x="1183" y="500" as="targetPoint"/>
                    </mxGeometry>
                </mxCell>
                <mxCell id="73" style="edgeStyle=none;html=1;entryX=1;entryY=0.5;entryDx=0;entryDy=0;exitX=0;exitY=0.5;exitDx=0;exitDy=0;" parent="1" source="18" target="77" edge="1">
                    <mxGeometry relative="1" as="geometry">
                        <mxPoint x="1129.9999999999998" y="695" as="sourcePoint"/>
                    </mxGeometry>
                </mxCell>
                <mxCell id="74" value="Non" style="text;html=1;strokeColor=none;fillColor=none;align=center;verticalAlign=middle;whiteSpace=wrap;rounded=0;" parent="1" vertex="1">
                    <mxGeometry x="1090" y="640" width="60" height="30" as="geometry"/>
                </mxCell>
                <mxCell id="75" value="i = 0" style="rounded=0;whiteSpace=wrap;html=1;fontSize=18;" parent="1" vertex="1">
                    <mxGeometry x="970" y="415" width="120" height="60" as="geometry"/>
                </mxCell>
                <mxCell id="76" style="edgeStyle=none;html=1;entryX=0;entryY=0.5;entryDx=0;entryDy=0;" parent="1" source="77" target="35" edge="1">
                    <mxGeometry relative="1" as="geometry">
                        <mxPoint x="1183" y="500" as="targetPoint"/>
                        <Array as="points">
                            <mxPoint x="1030" y="585"/>
                            <mxPoint x="1203" y="585"/>
                        </Array>
                    </mxGeometry>
                </mxCell>
                <mxCell id="77" value="i = i+1" style="rounded=0;whiteSpace=wrap;html=1;fontSize=18;" parent="1" vertex="1">
                    <mxGeometry x="970" y="610" width="120" height="60" as="geometry"/>
                </mxCell>
                <mxCell id="79" value="Oui" style="text;html=1;strokeColor=none;fillColor=none;align=center;verticalAlign=middle;whiteSpace=wrap;rounded=0;" parent="1" vertex="1">
                    <mxGeometry x="1300" y="710" width="60" height="30" as="geometry"/>
                </mxCell>
                <mxCell id="80" value="Non" style="text;html=1;strokeColor=none;fillColor=none;align=center;verticalAlign=middle;whiteSpace=wrap;rounded=0;" parent="1" vertex="1">
                    <mxGeometry x="820" y="520" width="60" height="30" as="geometry"/>
                </mxCell>
                <mxCell id="81" value="Oui" style="text;html=1;strokeColor=none;fillColor=none;align=center;verticalAlign=middle;whiteSpace=wrap;rounded=0;" parent="1" vertex="1">
                    <mxGeometry x="1280" y="520" width="60" height="30" as="geometry"/>
                </mxCell>
                <mxCell id="82" value="Non" style="text;html=1;strokeColor=none;fillColor=none;align=center;verticalAlign=middle;whiteSpace=wrap;rounded=0;" parent="1" vertex="1">
                    <mxGeometry x="160" y="610" width="60" height="30" as="geometry"/>
                </mxCell>
                <mxCell id="84" value="Non" style="text;html=1;strokeColor=none;fillColor=none;align=center;verticalAlign=middle;whiteSpace=wrap;rounded=0;" parent="1" vertex="1">
                    <mxGeometry x="827" y="910" width="60" height="30" as="geometry"/>
                </mxCell>
                <mxCell id="92" style="edgeStyle=none;html=1;entryX=0.5;entryY=1;entryDx=0;entryDy=0;" parent="1" source="86" target="77" edge="1">
                    <mxGeometry relative="1" as="geometry">
                        <Array as="points">
                            <mxPoint x="1030" y="1023"/>
                        </Array>
                    </mxGeometry>
                </mxCell>
                <mxCell id="86" value="Ajouter la recette à recettes à afficher" style="rounded=0;whiteSpace=wrap;html=1;fontSize=18;fontStyle=0" parent="1" vertex="1">
                    <mxGeometry x="1190" y="960" width="170" height="125" as="geometry"/>
                </mxCell>
                <mxCell id="87" style="edgeStyle=none;html=1;" parent="1" source="88" target="86" edge="1">
                    <mxGeometry relative="1" as="geometry"/>
                </mxCell>
                <mxCell id="93" style="edgeStyle=none;html=1;entryX=0.5;entryY=1;entryDx=0;entryDy=0;" parent="1" source="88" target="77" edge="1">
                    <mxGeometry relative="1" as="geometry">
                        <Array as="points">
                            <mxPoint x="1030" y="815"/>
                        </Array>
                    </mxGeometry>
                </mxCell>
                <mxCell id="88" value="recette est incluse dans recette à afficher" style="rhombus;whiteSpace=wrap;html=1;fontSize=18;fontStyle=0" parent="1" vertex="1">
                    <mxGeometry x="1150" y="740" width="250" height="150" as="geometry"/>
                </mxCell>
                <mxCell id="90" value="Non" style="text;html=1;strokeColor=none;fillColor=none;align=center;verticalAlign=middle;whiteSpace=wrap;rounded=0;" parent="1" vertex="1">
                    <mxGeometry x="1287" y="910" width="60" height="30" as="geometry"/>
                </mxCell>
                <mxCell id="94" value="Non" style="text;html=1;strokeColor=none;fillColor=none;align=center;verticalAlign=middle;whiteSpace=wrap;rounded=0;" parent="1" vertex="1">
                    <mxGeometry x="630" y="760" width="60" height="30" as="geometry"/>
                </mxCell>
                <mxCell id="96" value="&lt;font style=&quot;font-size: 18px;&quot;&gt;Fin&lt;/font&gt;" style="ellipse;whiteSpace=wrap;html=1;fontStyle=0" parent="1" vertex="1">
                    <mxGeometry x="1400" y="405" width="186" height="80" as="geometry"/>
                </mxCell>
                <mxCell id="98" value="Non" style="text;html=1;strokeColor=none;fillColor=none;align=center;verticalAlign=middle;whiteSpace=wrap;rounded=0;" vertex="1" parent="1">
                    <mxGeometry x="880" y="415" width="60" height="30" as="geometry"/>
                </mxCell>
                <mxCell id="100" value="Non" style="text;html=1;strokeColor=none;fillColor=none;align=center;verticalAlign=middle;whiteSpace=wrap;rounded=0;" vertex="1" parent="1">
                    <mxGeometry x="1340" y="415" width="60" height="30" as="geometry"/>
                </mxCell>
                <mxCell id="101" value="Oui" style="text;html=1;strokeColor=none;fillColor=none;align=center;verticalAlign=middle;whiteSpace=wrap;rounded=0;" vertex="1" parent="1">
                    <mxGeometry x="820" y="710" width="60" height="30" as="geometry"/>
                </mxCell>
            </root>
        </mxGraphModel>
    </diagram>
</mxfile>